<svg width="946" height="1106" viewBox="0 0 946 1106" fill="none" xmlns="http://www.w3.org/2000/svg">
<path d="M232.108 298.186C234.668 289.76 242.438 284 251.245 284H695.63C704.57 284 712.424 289.933 714.868 298.533L734.762 368.532C738.391 381.303 728.8 394 715.524 394H229.979C216.552 394 206.939 381.033 210.842 368.186L232.108 298.186Z" fill="#7D2685"/>
<path d="M169.872 401.968C166.799 383.671 180.905 367 199.457 367H749.722C768.549 367 782.724 384.14 779.189 402.633L663.158 1009.63C660.455 1023.77 648.088 1034 633.691 1034H301.383C286.731 1034 274.223 1023.42 271.797 1008.97L169.872 401.968Z" fill="#C44DD8"/>
<path d="M291 707.539C352.849 710.855 354.396 623.333 347.312 577.917C347.177 577.048 347.109 576.166 347.118 575.287C347.911 502.108 390.862 493.606 412.369 498.56" stroke="white" stroke-width="41" stroke-linecap="round" stroke-linejoin="round"/>
<path d="M292 707.527C353.849 704.211 355.396 791.734 348.312 837.15C348.177 838.018 348.109 838.9 348.118 839.779C348.911 912.958 391.862 921.461 413.369 916.507" stroke="white" stroke-width="41" stroke-linecap="round" stroke-linejoin="round"/>
<path d="M652.373 709.539C590.525 712.855 588.977 625.333 596.061 579.917C596.196 579.048 596.264 578.166 596.255 577.287C595.462 504.108 552.511 495.606 531.004 500.56" stroke="white" stroke-width="41" stroke-linecap="round" stroke-linejoin="round"/>
<path d="M651.373 709.527C589.525 706.211 587.977 793.734 595.061 839.15C595.196 840.018 595.264 840.9 595.255 841.779C594.462 914.958 551.511 923.461 530.004 918.507" stroke="white" stroke-width="41" stroke-linecap="round" stroke-linejoin="round"/>
<path d="M355.483 199.977C335.871 165.213 386.627 139.359 414.457 130.778C456.95 109.525 449.605 82.2819 440.62 71.3173" stroke="black" stroke-width="27" stroke-linecap="round"/>
<path d="M596.576 238.249C608.087 219.28 580.342 204.019 565.031 198.76C541.796 186.2 546.358 171.193 551.543 165.26" stroke="black" stroke-width="26.01" stroke-linecap="round"/>
<line x1="169" y1="400" x2="777" y2="400" stroke="black" stroke-width="72" stroke-linecap="round"/>
<mask id="mask0" mask-type="alpha" maskUnits="userSpaceOnUse" x="169" y="367" width="611" height="667">
<path fill-rule="evenodd" clip-rule="evenodd" d="M169.422 401.968C166.349 383.671 180.455 367 199.008 367H749.272C768.099 367 782.274 384.14 778.739 402.633L662.708 1009.63C660.005 1023.77 647.638 1034 633.241 1034H300.933C286.281 1034 273.773 1023.42 271.347 1008.97L169.422 401.968ZM431.896 503.161C434.437 492.128 427.554 481.124 416.521 478.582C401.142 475.04 378.289 476.2 358.841 491.519C338.874 507.247 326.608 534.589 326.17 575.065C326.147 577.141 326.308 579.156 326.607 581.076C329.924 602.342 330.958 632.414 324.747 655.724C321.664 667.295 317.259 675.427 312.183 680.338C308.648 683.758 304.104 686.329 297.361 686.974C295.209 686.907 293.016 686.928 290.782 687.04C279.853 686.909 270.67 695.425 270.08 706.441C269.474 717.747 278.147 727.403 289.453 728.009C292.277 728.161 295.037 728.169 297.729 728.038C304.821 728.579 309.539 731.202 313.183 734.728C318.259 739.639 322.664 747.771 325.747 759.342C331.958 782.652 330.924 812.724 327.607 833.99C327.308 835.91 327.147 837.924 327.17 840.001C327.608 880.477 339.874 907.819 359.841 923.547C379.289 938.866 402.142 940.026 417.521 936.484C428.554 933.942 435.437 922.938 432.896 911.905C430.355 900.872 419.35 893.988 408.318 896.53C402.19 897.941 392.814 897.328 385.211 891.339C378.157 885.782 368.6 872.371 368.172 839.957C371.901 815.806 373.579 779.612 365.365 748.786C361.413 733.956 354.753 718.769 343.428 707.003C354.148 695.392 360.531 680.668 364.365 666.28C372.579 635.454 370.901 599.26 367.172 575.109C367.6 542.695 377.157 529.284 384.211 523.727C391.814 517.738 401.19 517.124 407.318 518.536C418.35 521.077 429.355 514.194 431.896 503.161ZM510.577 505.161C508.036 494.128 514.92 483.124 525.953 480.582C541.331 477.04 564.185 478.2 583.632 493.519C603.599 509.247 615.865 536.589 616.304 577.065C616.326 579.141 616.165 581.156 615.866 583.076C612.549 604.342 611.515 634.414 617.726 657.724C620.81 669.295 625.214 677.427 630.291 682.338C633.825 685.758 638.37 688.329 645.112 688.974C647.264 688.907 649.457 688.928 651.692 689.04C662.62 688.909 671.803 697.425 672.394 708.441C673 719.747 664.326 729.403 653.021 730.009C650.196 730.161 647.437 730.169 644.744 730.038C637.652 730.579 632.934 733.202 629.291 736.728C624.214 741.639 619.81 749.771 616.726 761.342C610.515 784.652 611.549 814.724 614.866 835.99C615.165 837.91 615.326 839.924 615.304 842.001C614.865 882.477 602.599 909.819 582.632 925.547C563.185 940.866 540.331 942.026 524.953 938.484C513.92 935.942 507.036 924.938 509.577 913.905C512.119 902.872 523.123 895.988 534.156 898.53C540.284 899.941 549.659 899.328 557.262 893.339C564.317 887.782 573.873 874.371 574.301 841.957C570.572 817.806 568.895 781.612 577.109 750.786C581.06 735.956 587.72 720.769 599.046 709.003C588.326 697.392 581.942 682.668 578.109 668.28C569.895 637.454 571.572 601.26 575.301 577.109C574.873 544.695 565.317 531.284 558.262 525.727C550.659 519.738 541.284 519.124 535.156 520.536C524.123 523.077 513.119 516.194 510.577 505.161Z" fill="#C44DD8"/>
</mask>
<g mask="url(#mask0)">
<path d="M589.237 1066.12L361.529 1066.12C452.717 1002.56 461.026 795.285 422.55 696C384.074 596.716 559.05 645 559.05 564.5C559.05 504.5 443.175 477.077 430.05 436L590.05 436L734.55 436L706.903 649.571C706.903 649.571 678.377 708.688 646.687 772.191L619.325 846.136L646.687 899.363C634.186 922.187 614.447 925.563 612.465 926.363C603.984 929.785 617.91 1067.91 589.237 1066.12Z" fill="#CD54E1" fill-opacity="0.61"/>
<path d="M669.822 1075.76L442.114 1075.76C521.877 1003.08 533.41 830.214 505.05 739C476.69 647.787 630.55 627 630.55 546.5C630.55 486.5 569.675 477.078 556.55 436.001L670.05 436.001L816.05 436.001L787.488 659.208C787.488 659.208 758.962 718.325 727.272 781.828L699.91 855.773L727.272 909C714.771 931.824 695.032 935.2 693.05 936C684.569 939.422 698.495 1077.55 669.822 1075.76Z" fill="#B146C4"/>
<ellipse cx="230.816" cy="629.386" rx="5.65428" ry="183.318" transform="rotate(-9.14401 230.816 629.386)" fill="#DD52F4"/>
<path d="M327.55 1024.5C328.631 1024.5 338.334 1020 334.05 1020C327.655 1021.52 310.196 1017.95 301.05 1005.5C287.154 988.844 281.55 972.5 281.55 972.5C275.065 959.86 273.78 950.537 269.55 937C272.278 953.652 273.875 967.822 279.55 985C282.724 992.6 285.163 1005.76 293.55 1015C301.899 1024.2 316.176 1026.5 327.55 1024.5Z" fill="#DD52F4"/>
</g>
</svg>
