<svg width="946" height="1106" viewBox="0 0 946 1106" fill="none" xmlns="http://www.w3.org/2000/svg">
<path d="M232.108 298.186C234.668 289.76 242.438 284 251.245 284H695.63C704.57 284 712.424 289.933 714.868 298.533L734.762 368.532C738.391 381.303 728.8 394 715.524 394H229.979C216.552 394 206.939 381.033 210.842 368.186L232.108 298.186Z" fill="#7D2685"/>
<path d="M169.872 401.968C166.799 383.671 180.905 367 199.457 367H749.722C768.549 367 782.724 384.14 779.189 402.633L663.158 1009.63C660.455 1023.77 648.088 1034 633.691 1034H301.383C286.731 1034 274.223 1023.42 271.797 1008.97L169.872 401.968Z" fill="#C44DD8"/>
<path d="M291 707.539C352.849 710.855 354.396 623.333 347.312 577.917C347.177 577.048 347.109 576.166 347.118 575.287C347.911 502.108 390.862 493.606 412.369 498.56" stroke="white" stroke-width="41" stroke-linecap="round" stroke-linejoin="round"/>
<path d="M292 707.527C353.849 704.211 355.396 791.734 348.312 837.15C348.177 838.018 348.109 838.9 348.118 839.779C348.911 912.958 391.862 921.461 413.369 916.507" stroke="white" stroke-width="41" stroke-linecap="round" stroke-linejoin="round"/>
<path d="M652.373 709.539C590.525 712.855 588.977 625.333 596.061 579.917C596.196 579.048 596.264 578.166 596.255 577.287C595.462 504.108 552.511 495.606 531.004 500.56" stroke="white" stroke-width="41" stroke-linecap="round" stroke-linejoin="round"/>
<path d="M651.373 709.527C589.525 706.211 587.977 793.734 595.061 839.15C595.196 840.018 595.264 840.9 595.255 841.779C594.462 914.958 551.511 923.461 530.004 918.507" stroke="white" stroke-width="41" stroke-linecap="round" stroke-linejoin="round"/>
<path d="M355.483 199.977C335.871 165.212 386.627 139.359 414.457 130.778C456.95 109.524 449.605 82.2814 440.62 71.3168" stroke="black" stroke-width="27" stroke-linecap="round"/>
<path d="M596.576 238.249C608.087 219.28 580.342 204.019 565.031 198.76C541.796 186.2 546.358 171.193 551.543 165.26" stroke="black" stroke-width="26.01" stroke-linecap="round"/>
<line x1="169" y1="400" x2="777" y2="400" stroke="black" stroke-width="72" stroke-linecap="round"/>
</svg>
