<svg width="990" height="1429" viewBox="0 0 990 1429" fill="none" xmlns="http://www.w3.org/2000/svg">
<path d="M254.108 315.186C256.668 306.76 264.438 301 273.245 301H717.63C726.57 301 734.424 306.933 736.868 315.533L756.762 385.532C760.391 398.303 750.8 411 737.524 411H251.979C238.552 411 228.939 398.033 232.842 385.186L254.108 315.186Z" fill="#7D2685"/>
<path d="M191.872 418.968C188.799 400.671 202.905 384 221.457 384H771.722C790.549 384 804.724 401.14 801.189 419.633L685.158 1026.63C682.455 1040.77 670.088 1051 655.691 1051H323.383C308.731 1051 296.223 1040.42 293.797 1025.97L191.872 418.968Z" fill="#C44DD8"/>
<path d="M313 724.539C374.849 727.855 376.396 640.332 369.312 594.916C369.177 594.048 369.109 593.166 369.118 592.287C369.911 519.108 412.862 510.605 434.369 515.559" stroke="white" stroke-width="41" stroke-linecap="round" stroke-linejoin="round"/>
<path d="M314 724.527C375.849 721.211 377.396 808.734 370.312 854.15C370.177 855.018 370.109 855.9 370.118 856.779C370.911 929.958 413.862 938.461 435.369 933.507" stroke="white" stroke-width="41" stroke-linecap="round" stroke-linejoin="round"/>
<path d="M674.373 726.539C612.525 729.855 610.977 642.332 618.061 596.916C618.196 596.048 618.264 595.166 618.255 594.287C617.462 521.108 574.511 512.605 553.004 517.559" stroke="white" stroke-width="41" stroke-linecap="round" stroke-linejoin="round"/>
<path d="M673.373 726.527C611.525 723.211 609.977 810.734 617.061 856.15C617.196 857.018 617.264 857.9 617.255 858.779C616.462 931.958 573.511 940.461 552.004 935.507" stroke="white" stroke-width="41" stroke-linecap="round" stroke-linejoin="round"/>
<path d="M377.483 216.977C357.871 182.213 408.627 156.359 436.457 147.778C478.95 126.525 471.605 99.2819 462.62 88.3173" stroke="black" stroke-width="27" stroke-linecap="round"/>
<path d="M618.576 255.249C630.087 236.28 602.342 221.019 587.031 215.76C563.796 203.2 568.358 188.193 573.543 182.26" stroke="black" stroke-width="26.01" stroke-linecap="round"/>
<line x1="191" y1="417" x2="799" y2="417" stroke="black" stroke-width="72" stroke-linecap="round"/>
<path d="M233.7 1158.28C235.1 1159.12 235.8 1160.29 235.8 1161.78C235.8 1162.62 235.473 1163.55 234.82 1164.58C233.98 1165.61 232.907 1166.12 231.6 1166.12C230.853 1166.12 230.107 1165.89 229.36 1165.42C221.893 1160.47 213.727 1158 204.86 1158C197.3 1158 190.44 1159.77 184.28 1163.32C178.213 1166.87 173.407 1171.86 169.86 1178.3C166.407 1184.65 164.68 1191.88 164.68 1200C164.68 1208.31 166.453 1215.68 170 1222.12C173.547 1228.47 178.353 1233.41 184.42 1236.96C190.58 1240.41 197.393 1242.14 204.86 1242.14C213.727 1242.14 221.847 1239.71 229.22 1234.86C229.967 1234.39 230.76 1234.16 231.6 1234.16C232.907 1234.16 233.98 1234.72 234.82 1235.84C235.473 1236.59 235.8 1237.47 235.8 1238.5C235.8 1239.99 235.147 1241.11 233.84 1241.86C230.2 1244.29 225.72 1246.34 220.4 1248.02C215.08 1249.61 209.9 1250.4 204.86 1250.4C195.993 1250.4 187.78 1248.3 180.22 1244.1C172.753 1239.81 166.78 1233.83 162.3 1226.18C157.913 1218.53 155.72 1209.8 155.72 1200C155.72 1190.57 157.913 1182.03 162.3 1174.38C166.687 1166.63 172.613 1160.61 180.08 1156.32C187.547 1151.93 195.807 1149.74 204.86 1149.74C210.087 1149.74 215.173 1150.49 220.12 1151.98C225.16 1153.47 229.687 1155.57 233.7 1158.28ZM317.605 1213.16C317.605 1220.16 316.065 1226.51 312.985 1232.2C309.905 1237.89 305.658 1242.37 300.245 1245.64C294.832 1248.81 288.812 1250.4 282.185 1250.4C275.558 1250.4 269.538 1248.81 264.125 1245.64C258.712 1242.37 254.465 1237.89 251.385 1232.2C248.305 1226.51 246.765 1220.16 246.765 1213.16C246.765 1206.16 248.305 1199.81 251.385 1194.12C254.465 1188.43 258.712 1183.95 264.125 1180.68C269.538 1177.41 275.558 1175.78 282.185 1175.78C288.812 1175.78 294.832 1177.41 300.245 1180.68C305.658 1183.95 309.905 1188.43 312.985 1194.12C316.065 1199.81 317.605 1206.16 317.605 1213.16ZM309.205 1213.16C309.205 1207.56 308.038 1202.52 305.705 1198.04C303.372 1193.56 300.105 1190.06 295.905 1187.54C291.798 1184.93 287.225 1183.62 282.185 1183.62C277.145 1183.62 272.572 1184.93 268.465 1187.54C264.358 1190.06 261.092 1193.56 258.665 1198.04C256.332 1202.52 255.165 1207.56 255.165 1213.16C255.165 1218.67 256.332 1223.66 258.665 1228.14C261.092 1232.62 264.358 1236.17 268.465 1238.78C272.572 1241.3 277.145 1242.56 282.185 1242.56C287.225 1242.56 291.798 1241.3 295.905 1238.78C300.105 1236.26 303.372 1232.76 305.705 1228.28C308.038 1223.8 309.205 1218.76 309.205 1213.16ZM359.707 1153.38C356.72 1153.38 354.387 1154.36 352.707 1156.32C351.12 1158.28 350.327 1160.99 350.327 1164.44V1178.86H366.007C367.033 1178.86 367.92 1179.23 368.667 1179.98C369.507 1180.73 369.927 1181.66 369.927 1182.78C369.927 1183.9 369.507 1184.83 368.667 1185.58C367.92 1186.33 367.033 1186.7 366.007 1186.7H350.327V1244.8C350.327 1246.01 349.907 1247.04 349.067 1247.88C348.32 1248.63 347.34 1249 346.127 1249C344.913 1249 343.887 1248.63 343.047 1247.88C342.3 1247.04 341.927 1246.01 341.927 1244.8V1186.7H331.707C330.587 1186.7 329.653 1186.33 328.907 1185.58C328.16 1184.74 327.787 1183.81 327.787 1182.78C327.787 1181.57 328.16 1180.63 328.907 1179.98C329.653 1179.23 330.587 1178.86 331.707 1178.86H341.927V1164.44C341.927 1158.56 343.607 1154.03 346.967 1150.86C350.42 1147.59 354.993 1145.96 360.687 1145.96C363.3 1145.96 365.727 1146.38 367.967 1147.22C370.207 1147.97 371.327 1149.23 371.327 1151C371.327 1152.12 370.953 1153.05 370.207 1153.8C369.46 1154.55 368.62 1154.92 367.687 1154.92C366.847 1154.92 365.82 1154.69 364.607 1154.22C362.553 1153.66 360.92 1153.38 359.707 1153.38ZM409.127 1153.38C406.14 1153.38 403.807 1154.36 402.127 1156.32C400.54 1158.28 399.747 1160.99 399.747 1164.44V1178.86H415.427C416.453 1178.86 417.34 1179.23 418.087 1179.98C418.927 1180.73 419.347 1181.66 419.347 1182.78C419.347 1183.9 418.927 1184.83 418.087 1185.58C417.34 1186.33 416.453 1186.7 415.427 1186.7H399.747V1244.8C399.747 1246.01 399.327 1247.04 398.487 1247.88C397.74 1248.63 396.76 1249 395.547 1249C394.333 1249 393.307 1248.63 392.467 1247.88C391.72 1247.04 391.347 1246.01 391.347 1244.8V1186.7H381.127C380.007 1186.7 379.073 1186.33 378.327 1185.58C377.58 1184.74 377.207 1183.81 377.207 1182.78C377.207 1181.57 377.58 1180.63 378.327 1179.98C379.073 1179.23 380.007 1178.86 381.127 1178.86H391.347V1164.44C391.347 1158.56 393.027 1154.03 396.387 1150.86C399.84 1147.59 404.413 1145.96 410.107 1145.96C412.72 1145.96 415.147 1146.38 417.387 1147.22C419.627 1147.97 420.747 1149.23 420.747 1151C420.747 1152.12 420.373 1153.05 419.627 1153.8C418.88 1154.55 418.04 1154.92 417.107 1154.92C416.267 1154.92 415.24 1154.69 414.027 1154.22C411.973 1153.66 410.34 1153.38 409.127 1153.38ZM494.251 1209.1C494.251 1210.22 493.831 1211.2 492.991 1212.04C492.151 1212.79 491.171 1213.16 490.051 1213.16H437.131C437.131 1218.76 438.251 1223.8 440.491 1228.28C442.824 1232.67 446.091 1236.17 450.291 1238.78C454.584 1241.3 459.624 1242.56 465.411 1242.56C469.891 1242.56 473.904 1241.63 477.451 1239.76C480.998 1237.89 483.844 1235.51 485.991 1232.62C487.018 1231.78 487.998 1231.36 488.931 1231.36C489.864 1231.36 490.704 1231.73 491.451 1232.48C492.198 1233.23 492.571 1234.07 492.571 1235C492.571 1236.03 492.104 1237.01 491.171 1237.94C488.184 1241.58 484.404 1244.57 479.831 1246.9C475.351 1249.23 470.591 1250.4 465.551 1250.4C458.364 1250.4 452.018 1248.86 446.511 1245.78C441.004 1242.7 436.711 1238.41 433.631 1232.9C430.551 1227.3 429.011 1220.86 429.011 1213.58C429.011 1205.93 430.504 1199.25 433.491 1193.56C436.571 1187.77 440.631 1183.39 445.671 1180.4C450.711 1177.32 456.078 1175.78 461.771 1175.78C467.371 1175.78 472.598 1177.09 477.451 1179.7C482.398 1182.31 486.411 1186.14 489.491 1191.18C492.571 1196.22 494.158 1202.19 494.251 1209.1ZM461.771 1183.9C456.358 1183.9 451.318 1185.77 446.651 1189.5C442.078 1193.23 439.138 1198.6 437.831 1205.6H485.571V1204.48C485.104 1200.28 483.704 1196.64 481.371 1193.56C479.038 1190.39 476.098 1188.01 472.551 1186.42C469.098 1184.74 465.504 1183.9 461.771 1183.9ZM572.044 1209.1C572.044 1210.22 571.624 1211.2 570.784 1212.04C569.944 1212.79 568.964 1213.16 567.844 1213.16H514.924C514.924 1218.76 516.044 1223.8 518.284 1228.28C520.617 1232.67 523.884 1236.17 528.084 1238.78C532.377 1241.3 537.417 1242.56 543.204 1242.56C547.684 1242.56 551.697 1241.63 555.244 1239.76C558.791 1237.89 561.637 1235.51 563.784 1232.62C564.811 1231.78 565.791 1231.36 566.724 1231.36C567.657 1231.36 568.497 1231.73 569.244 1232.48C569.991 1233.23 570.364 1234.07 570.364 1235C570.364 1236.03 569.897 1237.01 568.964 1237.94C565.977 1241.58 562.197 1244.57 557.624 1246.9C553.144 1249.23 548.384 1250.4 543.344 1250.4C536.157 1250.4 529.811 1248.86 524.304 1245.78C518.797 1242.7 514.504 1238.41 511.424 1232.9C508.344 1227.3 506.804 1220.86 506.804 1213.58C506.804 1205.93 508.297 1199.25 511.284 1193.56C514.364 1187.77 518.424 1183.39 523.464 1180.4C528.504 1177.32 533.871 1175.78 539.564 1175.78C545.164 1175.78 550.391 1177.09 555.244 1179.7C560.191 1182.31 564.204 1186.14 567.284 1191.18C570.364 1196.22 571.951 1202.19 572.044 1209.1ZM539.564 1183.9C534.151 1183.9 529.111 1185.77 524.444 1189.5C519.871 1193.23 516.931 1198.6 515.624 1205.6H563.364V1204.48C562.897 1200.28 561.497 1196.64 559.164 1193.56C556.831 1190.39 553.891 1188.01 550.344 1186.42C546.891 1184.74 543.297 1183.9 539.564 1183.9Z" fill="#3E3E3E"/>
<path d="M604.08 1242.16L586.16 1155.64C585.693 1153.59 586.113 1151.77 587.42 1150.18C588.82 1148.59 590.547 1147.8 592.6 1147.8H596.66C598.993 1147.8 601 1148.55 602.68 1150.04C604.36 1151.53 605.387 1153.4 605.76 1155.64L617.38 1229.28C617.38 1229.37 617.427 1229.42 617.52 1229.42C617.707 1229.42 617.8 1229.37 617.8 1229.28L629 1155.64C629.373 1153.4 630.4 1151.53 632.08 1150.04C633.76 1148.55 635.767 1147.8 638.1 1147.8H646.5C648.833 1147.8 650.84 1148.55 652.52 1150.04C654.2 1151.53 655.227 1153.4 655.6 1155.64L666.94 1229.28C666.94 1229.37 666.987 1229.42 667.08 1229.42C667.173 1229.42 667.22 1229.37 667.22 1229.28L678.84 1155.64C679.213 1153.4 680.24 1151.53 681.92 1150.04C683.6 1148.55 685.607 1147.8 687.94 1147.8H691.44C693.493 1147.8 695.173 1148.59 696.48 1150.18C697.787 1151.77 698.253 1153.59 697.88 1155.64L679.96 1242.16C679.493 1244.4 678.373 1246.27 676.6 1247.76C674.827 1249.25 672.773 1250 670.44 1250H663.02C660.687 1250 658.633 1249.25 656.86 1247.76C655.18 1246.27 654.153 1244.4 653.78 1242.16L642.16 1168.52C642.16 1168.43 642.113 1168.38 642.02 1168.38C641.927 1168.38 641.88 1168.43 641.88 1168.52L630.26 1242.16C629.887 1244.4 628.813 1246.27 627.04 1247.76C625.36 1249.25 623.353 1250 621.02 1250H613.6C611.267 1250 609.213 1249.25 607.44 1247.76C605.667 1246.27 604.547 1244.4 604.08 1242.16ZM724.75 1250C722.603 1250 720.737 1249.21 719.15 1247.62C717.563 1246.03 716.77 1244.17 716.77 1242.02V1155.78C716.77 1153.63 717.563 1151.77 719.15 1150.18C720.737 1148.59 722.603 1147.8 724.75 1147.8H730.35C732.497 1147.8 734.363 1148.59 735.95 1150.18C737.537 1151.77 738.33 1153.63 738.33 1155.78V1242.02C738.33 1244.17 737.537 1246.03 735.95 1247.62C734.363 1249.21 732.497 1250 730.35 1250H724.75ZM782.509 1163.76V1197.5C782.509 1198.15 782.882 1198.57 783.629 1198.76C787.176 1199.23 790.629 1199.46 793.989 1199.46C801.549 1199.46 807.289 1197.83 811.209 1194.56C815.222 1191.2 817.229 1186.44 817.229 1180.28C817.229 1167.87 809.482 1161.66 793.989 1161.66C790.629 1161.66 787.176 1161.89 783.629 1162.36C782.882 1162.55 782.509 1163.01 782.509 1163.76ZM771.029 1250C768.882 1250 767.016 1249.21 765.429 1247.62C763.936 1246.03 763.189 1244.17 763.189 1242.02V1156.48C763.189 1154.24 763.936 1152.23 765.429 1150.46C766.922 1148.69 768.789 1147.71 771.029 1147.52C778.962 1146.77 786.616 1146.4 793.989 1146.4C807.989 1146.4 818.489 1149.2 825.489 1154.8C832.489 1160.31 835.989 1168.33 835.989 1178.88C835.989 1190.55 832.582 1199.37 825.769 1205.34C819.049 1211.31 809.062 1214.3 795.809 1214.3C792.729 1214.3 788.669 1214.11 783.629 1213.74C782.882 1213.74 782.509 1214.11 782.509 1214.86V1242.02C782.509 1244.17 781.716 1246.03 780.129 1247.62C778.542 1249.21 776.676 1250 774.529 1250H771.029Z" fill="#A843B9"/>
<mask id="mask0" mask-type="alpha" maskUnits="userSpaceOnUse" x="191" y="384" width="611" height="667">
<path fill-rule="evenodd" clip-rule="evenodd" d="M191.422 418.968C188.349 400.671 202.455 384 221.008 384H771.272C790.099 384 804.274 401.14 800.739 419.633L684.708 1026.63C682.005 1040.77 669.638 1051 655.241 1051H322.933C308.281 1051 295.773 1040.42 293.347 1025.97L191.422 418.968ZM453.896 520.161C456.437 509.128 449.554 498.124 438.521 495.582C423.142 492.04 400.289 493.2 380.841 508.519C360.874 524.247 348.608 551.589 348.17 592.065C348.147 594.141 348.308 596.156 348.607 598.076C351.924 619.342 352.958 649.414 346.747 672.724C343.664 684.295 339.259 692.427 334.183 697.338C330.648 700.758 326.104 703.329 319.361 703.974C317.209 703.907 315.016 703.928 312.782 704.04C301.853 703.909 292.67 712.425 292.08 723.441C291.474 734.747 300.147 744.403 311.453 745.009C314.277 745.161 317.037 745.169 319.729 745.038C326.821 745.579 331.539 748.202 335.183 751.728C340.259 756.639 344.664 764.771 347.747 776.342C353.958 799.652 352.924 829.724 349.607 850.99C349.308 852.91 349.147 854.924 349.17 857.001C349.608 897.477 361.874 924.819 381.841 940.547C401.289 955.866 424.142 957.026 439.521 953.484C450.554 950.942 457.437 939.938 454.896 928.905C452.355 917.872 441.35 910.988 430.318 913.53C424.19 914.941 414.814 914.328 407.211 908.339C400.157 902.782 390.6 889.371 390.172 856.957C393.901 832.806 395.579 796.612 387.365 765.786C383.413 750.956 376.753 735.769 365.428 724.003C376.148 712.392 382.531 697.668 386.365 683.28C394.579 652.454 392.901 616.26 389.172 592.109C389.6 559.695 399.157 546.284 406.211 540.727C413.814 534.738 423.19 534.124 429.318 535.536C440.35 538.077 451.355 531.194 453.896 520.161ZM532.577 522.161C530.036 511.128 536.92 500.124 547.953 497.582C563.331 494.04 586.185 495.2 605.632 510.519C625.599 526.247 637.865 553.589 638.304 594.065C638.326 596.141 638.165 598.156 637.866 600.076C634.549 621.342 633.515 651.414 639.726 674.724C642.81 686.295 647.214 694.427 652.291 699.338C655.825 702.758 660.37 705.329 667.112 705.974C669.264 705.907 671.457 705.928 673.692 706.04C684.62 705.909 693.803 714.425 694.394 725.441C695 736.747 686.326 746.403 675.021 747.009C672.196 747.161 669.437 747.169 666.744 747.038C659.652 747.579 654.934 750.202 651.291 753.728C646.214 758.639 641.81 766.771 638.726 778.342C632.515 801.652 633.549 831.724 636.866 852.99C637.165 854.91 637.326 856.924 637.304 859.001C636.865 899.477 624.599 926.819 604.632 942.547C585.185 957.866 562.331 959.026 546.953 955.484C535.92 952.942 529.036 941.938 531.577 930.905C534.119 919.872 545.123 912.988 556.156 915.53C562.284 916.941 571.659 916.328 579.262 910.339C586.317 904.782 595.873 891.371 596.301 858.957C592.572 834.806 590.895 798.612 599.109 767.786C603.06 752.956 609.72 737.769 621.046 726.003C610.326 714.392 603.942 699.668 600.109 685.28C591.895 654.454 593.572 618.26 597.301 594.109C596.873 561.695 587.317 548.284 580.262 542.727C572.659 536.738 563.284 536.124 557.156 537.536C546.123 540.077 535.119 533.194 532.577 522.161Z" fill="#C44DD8"/>
</mask>
<g mask="url(#mask0)">
<path d="M611.237 1083.12L383.529 1083.12C474.717 1019.56 483.026 812.285 444.55 713C406.074 613.715 581.05 662 581.05 581.5C581.05 521.5 465.175 494.077 452.05 453L612.05 453L756.55 453L728.903 666.57C728.903 666.57 700.377 725.688 668.687 789.19L641.325 863.135L668.687 916.363C656.186 939.187 636.447 942.563 634.465 943.363C625.984 946.785 639.91 1084.91 611.237 1083.12Z" fill="#CD54E1" fill-opacity="0.61"/>
<path d="M691.822 1092.76L464.114 1092.76C543.877 1020.08 555.41 847.213 527.05 756C498.69 664.787 652.55 644 652.55 563.5C652.55 503.5 591.675 494.077 578.55 453L692.05 453L838.05 453L809.488 676.207C809.488 676.207 780.962 735.325 749.272 798.827L721.91 872.772L749.272 926C736.771 948.824 717.032 952.2 715.05 953C706.569 956.422 720.495 1094.55 691.822 1092.76Z" fill="#B146C4"/>
<ellipse cx="252.816" cy="646.386" rx="5.65428" ry="183.318" transform="rotate(-9.14401 252.816 646.386)" fill="#DD52F4"/>
<path d="M349.55 1041.5C350.631 1041.5 360.334 1037 356.05 1037C349.655 1038.52 332.196 1034.95 323.05 1022.5C309.154 1005.84 303.55 989.5 303.55 989.5C297.065 976.86 295.78 967.537 291.55 954C294.278 970.652 295.875 984.822 301.55 1002C304.724 1009.6 307.163 1022.76 315.55 1032C323.899 1041.2 338.176 1043.5 349.55 1041.5Z" fill="#DD52F4"/>
</g>
</svg>
