<svg width="1709" height="1086" viewBox="0 0 1709 1086" fill="none" xmlns="http://www.w3.org/2000/svg">
<path d="M178.108 284.186C180.668 275.76 188.438 270 197.245 270H641.63C650.57 270 658.424 275.933 660.868 284.533L680.762 354.532C684.391 367.303 674.8 380 661.524 380H175.979C162.552 380 152.939 367.033 156.842 354.186L178.108 284.186Z" fill="#7D2685"/>
<path d="M115.872 387.968C112.799 369.671 126.905 353 145.457 353H695.722C714.549 353 728.724 370.14 725.189 388.633L609.158 995.633C606.455 1009.77 594.088 1020 579.691 1020H247.383C232.731 1020 220.223 1009.42 217.797 994.968L115.872 387.968Z" fill="#C44DD8"/>
<path d="M237 693.539C298.849 696.855 300.396 609.332 293.312 563.916C293.177 563.048 293.109 562.166 293.118 561.287C293.911 488.108 336.862 479.605 358.369 484.559" stroke="white" stroke-width="41" stroke-linecap="round" stroke-linejoin="round"/>
<path d="M238 693.527C299.849 690.211 301.396 777.734 294.312 823.15C294.177 824.018 294.109 824.9 294.118 825.779C294.911 898.958 337.862 907.461 359.369 902.507" stroke="white" stroke-width="41" stroke-linecap="round" stroke-linejoin="round"/>
<path d="M598.373 695.539C536.525 698.855 534.977 611.332 542.061 565.916C542.196 565.048 542.264 564.166 542.255 563.287C541.462 490.108 498.511 481.605 477.004 486.559" stroke="white" stroke-width="41" stroke-linecap="round" stroke-linejoin="round"/>
<path d="M597.373 695.527C535.525 692.211 533.977 779.734 541.061 825.15C541.196 826.018 541.264 826.9 541.255 827.779C540.462 900.958 497.511 909.461 476.004 904.507" stroke="white" stroke-width="41" stroke-linecap="round" stroke-linejoin="round"/>
<path d="M301.483 185.977C281.871 151.213 332.627 125.359 360.457 116.778C402.95 95.5245 395.605 68.2819 386.62 57.3173" stroke="black" stroke-width="27" stroke-linecap="round"/>
<path d="M542.576 224.249C554.087 205.28 526.342 190.019 511.031 184.76C487.796 172.2 492.358 157.193 497.543 151.26" stroke="black" stroke-width="26.01" stroke-linecap="round"/>
<line x1="115" y1="386" x2="723" y2="386" stroke="black" stroke-width="72" stroke-linecap="round"/>
<path d="M933.7 598.28C935.1 599.12 935.8 600.287 935.8 601.78C935.8 602.62 935.473 603.553 934.82 604.58C933.98 605.607 932.907 606.12 931.6 606.12C930.853 606.12 930.107 605.887 929.36 605.42C921.893 600.473 913.727 598 904.86 598C897.3 598 890.44 599.773 884.28 603.32C878.213 606.867 873.407 611.86 869.86 618.3C866.407 624.647 864.68 631.88 864.68 640C864.68 648.307 866.453 655.68 870 662.12C873.547 668.467 878.353 673.413 884.42 676.96C890.58 680.413 897.393 682.14 904.86 682.14C913.727 682.14 921.847 679.713 929.22 674.86C929.967 674.393 930.76 674.16 931.6 674.16C932.907 674.16 933.98 674.72 934.82 675.84C935.473 676.587 935.8 677.473 935.8 678.5C935.8 679.993 935.147 681.113 933.84 681.86C930.2 684.287 925.72 686.34 920.4 688.02C915.08 689.607 909.9 690.4 904.86 690.4C895.993 690.4 887.78 688.3 880.22 684.1C872.753 679.807 866.78 673.833 862.3 666.18C857.913 658.527 855.72 649.8 855.72 640C855.72 630.573 857.913 622.033 862.3 614.38C866.687 606.633 872.613 600.613 880.08 596.32C887.547 591.933 895.807 589.74 904.86 589.74C910.087 589.74 915.173 590.487 920.12 591.98C925.16 593.473 929.687 595.573 933.7 598.28ZM1017.6 653.16C1017.6 660.16 1016.06 666.507 1012.98 672.2C1009.9 677.893 1005.66 682.373 1000.24 685.64C994.832 688.813 988.812 690.4 982.185 690.4C975.558 690.4 969.538 688.813 964.125 685.64C958.712 682.373 954.465 677.893 951.385 672.2C948.305 666.507 946.765 660.16 946.765 653.16C946.765 646.16 948.305 639.813 951.385 634.12C954.465 628.427 958.712 623.947 964.125 620.68C969.538 617.413 975.558 615.78 982.185 615.78C988.812 615.78 994.832 617.413 1000.24 620.68C1005.66 623.947 1009.9 628.427 1012.98 634.12C1016.06 639.813 1017.6 646.16 1017.6 653.16ZM1009.2 653.16C1009.2 647.56 1008.04 642.52 1005.7 638.04C1003.37 633.56 1000.1 630.06 995.905 627.54C991.798 624.927 987.225 623.62 982.185 623.62C977.145 623.62 972.572 624.927 968.465 627.54C964.358 630.06 961.092 633.56 958.665 638.04C956.332 642.52 955.165 647.56 955.165 653.16C955.165 658.667 956.332 663.66 958.665 668.14C961.092 672.62 964.358 676.167 968.465 678.78C972.572 681.3 977.145 682.56 982.185 682.56C987.225 682.56 991.798 681.3 995.905 678.78C1000.1 676.26 1003.37 672.76 1005.7 668.28C1008.04 663.8 1009.2 658.76 1009.2 653.16ZM1059.71 593.38C1056.72 593.38 1054.39 594.36 1052.71 596.32C1051.12 598.28 1050.33 600.987 1050.33 604.44V618.86H1066.01C1067.03 618.86 1067.92 619.233 1068.67 619.98C1069.51 620.727 1069.93 621.66 1069.93 622.78C1069.93 623.9 1069.51 624.833 1068.67 625.58C1067.92 626.327 1067.03 626.7 1066.01 626.7H1050.33V684.8C1050.33 686.013 1049.91 687.04 1049.07 687.88C1048.32 688.627 1047.34 689 1046.13 689C1044.91 689 1043.89 688.627 1043.05 687.88C1042.3 687.04 1041.93 686.013 1041.93 684.8V626.7H1031.71C1030.59 626.7 1029.65 626.327 1028.91 625.58C1028.16 624.74 1027.79 623.807 1027.79 622.78C1027.79 621.567 1028.16 620.633 1028.91 619.98C1029.65 619.233 1030.59 618.86 1031.71 618.86H1041.93V604.44C1041.93 598.56 1043.61 594.033 1046.97 590.86C1050.42 587.593 1054.99 585.96 1060.69 585.96C1063.3 585.96 1065.73 586.38 1067.97 587.22C1070.21 587.967 1071.33 589.227 1071.33 591C1071.33 592.12 1070.95 593.053 1070.21 593.8C1069.46 594.547 1068.62 594.92 1067.69 594.92C1066.85 594.92 1065.82 594.687 1064.61 594.22C1062.55 593.66 1060.92 593.38 1059.71 593.38ZM1109.13 593.38C1106.14 593.38 1103.81 594.36 1102.13 596.32C1100.54 598.28 1099.75 600.987 1099.75 604.44V618.86H1115.43C1116.45 618.86 1117.34 619.233 1118.09 619.98C1118.93 620.727 1119.35 621.66 1119.35 622.78C1119.35 623.9 1118.93 624.833 1118.09 625.58C1117.34 626.327 1116.45 626.7 1115.43 626.7H1099.75V684.8C1099.75 686.013 1099.33 687.04 1098.49 687.88C1097.74 688.627 1096.76 689 1095.55 689C1094.33 689 1093.31 688.627 1092.47 687.88C1091.72 687.04 1091.35 686.013 1091.35 684.8V626.7H1081.13C1080.01 626.7 1079.07 626.327 1078.33 625.58C1077.58 624.74 1077.21 623.807 1077.21 622.78C1077.21 621.567 1077.58 620.633 1078.33 619.98C1079.07 619.233 1080.01 618.86 1081.13 618.86H1091.35V604.44C1091.35 598.56 1093.03 594.033 1096.39 590.86C1099.84 587.593 1104.41 585.96 1110.11 585.96C1112.72 585.96 1115.15 586.38 1117.39 587.22C1119.63 587.967 1120.75 589.227 1120.75 591C1120.75 592.12 1120.37 593.053 1119.63 593.8C1118.88 594.547 1118.04 594.92 1117.11 594.92C1116.27 594.92 1115.24 594.687 1114.03 594.22C1111.97 593.66 1110.34 593.38 1109.13 593.38ZM1194.25 649.1C1194.25 650.22 1193.83 651.2 1192.99 652.04C1192.15 652.787 1191.17 653.16 1190.05 653.16H1137.13C1137.13 658.76 1138.25 663.8 1140.49 668.28C1142.82 672.667 1146.09 676.167 1150.29 678.78C1154.58 681.3 1159.62 682.56 1165.41 682.56C1169.89 682.56 1173.9 681.627 1177.45 679.76C1181 677.893 1183.84 675.513 1185.99 672.62C1187.02 671.78 1188 671.36 1188.93 671.36C1189.86 671.36 1190.7 671.733 1191.45 672.48C1192.2 673.227 1192.57 674.067 1192.57 675C1192.57 676.027 1192.1 677.007 1191.17 677.94C1188.18 681.58 1184.4 684.567 1179.83 686.9C1175.35 689.233 1170.59 690.4 1165.55 690.4C1158.36 690.4 1152.02 688.86 1146.51 685.78C1141 682.7 1136.71 678.407 1133.63 672.9C1130.55 667.3 1129.01 660.86 1129.01 653.58C1129.01 645.927 1130.5 639.253 1133.49 633.56C1136.57 627.773 1140.63 623.387 1145.67 620.4C1150.71 617.32 1156.08 615.78 1161.77 615.78C1167.37 615.78 1172.6 617.087 1177.45 619.7C1182.4 622.313 1186.41 626.14 1189.49 631.18C1192.57 636.22 1194.16 642.193 1194.25 649.1ZM1161.77 623.9C1156.36 623.9 1151.32 625.767 1146.65 629.5C1142.08 633.233 1139.14 638.6 1137.83 645.6H1185.57V644.48C1185.1 640.28 1183.7 636.64 1181.37 633.56C1179.04 630.387 1176.1 628.007 1172.55 626.42C1169.1 624.74 1165.5 623.9 1161.77 623.9ZM1272.04 649.1C1272.04 650.22 1271.62 651.2 1270.78 652.04C1269.94 652.787 1268.96 653.16 1267.84 653.16H1214.92C1214.92 658.76 1216.04 663.8 1218.28 668.28C1220.62 672.667 1223.88 676.167 1228.08 678.78C1232.38 681.3 1237.42 682.56 1243.2 682.56C1247.68 682.56 1251.7 681.627 1255.24 679.76C1258.79 677.893 1261.64 675.513 1263.78 672.62C1264.81 671.78 1265.79 671.36 1266.72 671.36C1267.66 671.36 1268.5 671.733 1269.24 672.48C1269.99 673.227 1270.36 674.067 1270.36 675C1270.36 676.027 1269.9 677.007 1268.96 677.94C1265.98 681.58 1262.2 684.567 1257.62 686.9C1253.14 689.233 1248.38 690.4 1243.34 690.4C1236.16 690.4 1229.81 688.86 1224.3 685.78C1218.8 682.7 1214.5 678.407 1211.42 672.9C1208.34 667.3 1206.8 660.86 1206.8 653.58C1206.8 645.927 1208.3 639.253 1211.28 633.56C1214.36 627.773 1218.42 623.387 1223.46 620.4C1228.5 617.32 1233.87 615.78 1239.56 615.78C1245.16 615.78 1250.39 617.087 1255.24 619.7C1260.19 622.313 1264.2 626.14 1267.28 631.18C1270.36 636.22 1271.95 642.193 1272.04 649.1ZM1239.56 623.9C1234.15 623.9 1229.11 625.767 1224.44 629.5C1219.87 633.233 1216.93 638.6 1215.62 645.6H1263.36V644.48C1262.9 640.28 1261.5 636.64 1259.16 633.56C1256.83 630.387 1253.89 628.007 1250.34 626.42C1246.89 624.74 1243.3 623.9 1239.56 623.9Z" fill="#3E3E3E"/>
<path d="M1304.08 682.16L1286.16 595.64C1285.69 593.587 1286.11 591.767 1287.42 590.18C1288.82 588.593 1290.55 587.8 1292.6 587.8H1296.66C1298.99 587.8 1301 588.547 1302.68 590.04C1304.36 591.533 1305.39 593.4 1305.76 595.64L1317.38 669.28C1317.38 669.373 1317.43 669.42 1317.52 669.42C1317.71 669.42 1317.8 669.373 1317.8 669.28L1329 595.64C1329.37 593.4 1330.4 591.533 1332.08 590.04C1333.76 588.547 1335.77 587.8 1338.1 587.8H1346.5C1348.83 587.8 1350.84 588.547 1352.52 590.04C1354.2 591.533 1355.23 593.4 1355.6 595.64L1366.94 669.28C1366.94 669.373 1366.99 669.42 1367.08 669.42C1367.17 669.42 1367.22 669.373 1367.22 669.28L1378.84 595.64C1379.21 593.4 1380.24 591.533 1381.92 590.04C1383.6 588.547 1385.61 587.8 1387.94 587.8H1391.44C1393.49 587.8 1395.17 588.593 1396.48 590.18C1397.79 591.767 1398.25 593.587 1397.88 595.64L1379.96 682.16C1379.49 684.4 1378.37 686.267 1376.6 687.76C1374.83 689.253 1372.77 690 1370.44 690H1363.02C1360.69 690 1358.63 689.253 1356.86 687.76C1355.18 686.267 1354.15 684.4 1353.78 682.16L1342.16 608.52C1342.16 608.427 1342.11 608.38 1342.02 608.38C1341.93 608.38 1341.88 608.427 1341.88 608.52L1330.26 682.16C1329.89 684.4 1328.81 686.267 1327.04 687.76C1325.36 689.253 1323.35 690 1321.02 690H1313.6C1311.27 690 1309.21 689.253 1307.44 687.76C1305.67 686.267 1304.55 684.4 1304.08 682.16ZM1424.75 690C1422.6 690 1420.74 689.207 1419.15 687.62C1417.56 686.033 1416.77 684.167 1416.77 682.02V595.78C1416.77 593.633 1417.56 591.767 1419.15 590.18C1420.74 588.593 1422.6 587.8 1424.75 587.8H1430.35C1432.5 587.8 1434.36 588.593 1435.95 590.18C1437.54 591.767 1438.33 593.633 1438.33 595.78V682.02C1438.33 684.167 1437.54 686.033 1435.95 687.62C1434.36 689.207 1432.5 690 1430.35 690H1424.75ZM1482.51 603.76V637.5C1482.51 638.153 1482.88 638.573 1483.63 638.76C1487.18 639.227 1490.63 639.46 1493.99 639.46C1501.55 639.46 1507.29 637.827 1511.21 634.56C1515.22 631.2 1517.23 626.44 1517.23 620.28C1517.23 607.867 1509.48 601.66 1493.99 601.66C1490.63 601.66 1487.18 601.893 1483.63 602.36C1482.88 602.547 1482.51 603.013 1482.51 603.76ZM1471.03 690C1468.88 690 1467.02 689.207 1465.43 687.62C1463.94 686.033 1463.19 684.167 1463.19 682.02V596.48C1463.19 594.24 1463.94 592.233 1465.43 590.46C1466.92 588.687 1468.79 587.707 1471.03 587.52C1478.96 586.773 1486.62 586.4 1493.99 586.4C1507.99 586.4 1518.49 589.2 1525.49 594.8C1532.49 600.307 1535.99 608.333 1535.99 618.88C1535.99 630.547 1532.58 639.367 1525.77 645.34C1519.05 651.313 1509.06 654.3 1495.81 654.3C1492.73 654.3 1488.67 654.113 1483.63 653.74C1482.88 653.74 1482.51 654.113 1482.51 654.86V682.02C1482.51 684.167 1481.72 686.033 1480.13 687.62C1478.54 689.207 1476.68 690 1474.53 690H1471.03Z" fill="#A843B9"/>
<mask id="mask0" mask-type="alpha" maskUnits="userSpaceOnUse" x="115" y="353" width="611" height="667">
<path fill-rule="evenodd" clip-rule="evenodd" d="M115.422 387.968C112.349 369.671 126.455 353 145.008 353H695.272C714.099 353 728.274 370.14 724.739 388.633L608.708 995.633C606.005 1009.77 593.638 1020 579.241 1020H246.933C232.281 1020 219.773 1009.42 217.347 994.968L115.422 387.968ZM377.896 489.161C380.437 478.128 373.554 467.124 362.521 464.582C347.142 461.04 324.289 462.2 304.841 477.519C284.874 493.247 272.608 520.589 272.17 561.065C272.147 563.141 272.308 565.156 272.607 567.076C275.924 588.342 276.958 618.414 270.747 641.724C267.664 653.295 263.259 661.427 258.183 666.338C254.648 669.758 250.104 672.329 243.361 672.974C241.209 672.907 239.016 672.928 236.782 673.04C225.853 672.909 216.67 681.425 216.08 692.441C215.474 703.747 224.147 713.403 235.453 714.009C238.277 714.161 241.037 714.169 243.729 714.038C250.821 714.579 255.539 717.202 259.183 720.728C264.259 725.639 268.664 733.771 271.747 745.342C277.958 768.652 276.924 798.724 273.607 819.99C273.308 821.91 273.147 823.924 273.17 826.001C273.608 866.477 285.874 893.819 305.841 909.547C325.289 924.866 348.142 926.026 363.521 922.484C374.554 919.942 381.437 908.938 378.896 897.905C376.355 886.872 365.35 879.988 354.318 882.53C348.19 883.941 338.814 883.328 331.211 877.339C324.157 871.782 314.6 858.371 314.172 825.957C317.901 801.806 319.579 765.612 311.365 734.786C307.413 719.956 300.753 704.769 289.428 693.003C300.148 681.392 306.531 666.668 310.365 652.28C318.579 621.454 316.901 585.26 313.172 561.109C313.6 528.695 323.157 515.284 330.211 509.727C337.814 503.738 347.19 503.124 353.318 504.536C364.35 507.077 375.355 500.194 377.896 489.161ZM456.577 491.161C454.036 480.128 460.92 469.124 471.953 466.582C487.331 463.04 510.185 464.2 529.632 479.519C549.599 495.247 561.865 522.589 562.304 563.065C562.326 565.141 562.165 567.156 561.866 569.076C558.549 590.342 557.515 620.414 563.726 643.724C566.81 655.295 571.214 663.427 576.291 668.338C579.825 671.758 584.37 674.329 591.112 674.974C593.264 674.907 595.457 674.928 597.692 675.04C608.62 674.909 617.803 683.425 618.394 694.441C619 705.747 610.326 715.403 599.021 716.009C596.196 716.161 593.437 716.169 590.744 716.038C583.652 716.579 578.934 719.202 575.291 722.728C570.214 727.639 565.81 735.771 562.726 747.342C556.515 770.652 557.549 800.724 560.866 821.99C561.165 823.91 561.326 825.924 561.304 828.001C560.865 868.477 548.599 895.819 528.632 911.547C509.185 926.866 486.331 928.026 470.953 924.484C459.92 921.942 453.036 910.938 455.577 899.905C458.119 888.872 469.123 881.988 480.156 884.53C486.284 885.941 495.659 885.328 503.262 879.339C510.317 873.782 519.873 860.371 520.301 827.957C516.572 803.806 514.895 767.612 523.109 736.786C527.06 721.956 533.72 706.769 545.046 695.003C534.326 683.392 527.942 668.668 524.109 654.28C515.895 623.454 517.572 587.26 521.301 563.109C520.873 530.695 511.317 517.284 504.262 511.727C496.659 505.738 487.284 505.124 481.156 506.536C470.123 509.077 459.119 502.194 456.577 491.161Z" fill="#C44DD8"/>
</mask>
<g mask="url(#mask0)">
<path d="M535.237 1052.12L307.529 1052.12C398.717 988.557 407.026 781.285 368.55 682C330.074 582.715 505.05 631 505.05 550.5C505.05 490.5 389.175 463.077 376.05 422L536.05 422L680.55 422L652.903 635.57C652.903 635.57 624.377 694.688 592.687 758.19L565.325 832.135L592.687 885.363C580.186 908.187 560.447 911.563 558.465 912.363C549.984 915.785 563.91 1053.91 535.237 1052.12Z" fill="#CD54E1" fill-opacity="0.61"/>
<path d="M615.822 1061.76L388.114 1061.76C467.877 989.078 479.41 816.213 451.05 725C422.69 633.787 576.55 613 576.55 532.5C576.55 472.5 515.675 463.077 502.55 422L616.05 422L762.05 422L733.488 645.207C733.488 645.207 704.962 704.325 673.272 767.827L645.91 841.772L673.272 895C660.771 917.824 641.032 921.2 639.05 922C630.569 925.422 644.495 1063.55 615.822 1061.76Z" fill="#B146C4"/>
<ellipse cx="176.816" cy="615.386" rx="5.65428" ry="183.318" transform="rotate(-9.14401 176.816 615.386)" fill="#DD52F4"/>
<path d="M273.55 1010.5C274.631 1010.5 284.334 1006 280.05 1006C273.655 1007.52 256.196 1003.95 247.05 991.5C233.154 974.844 227.55 958.5 227.55 958.5C221.065 945.86 219.78 936.537 215.55 923C218.278 939.652 219.875 953.822 225.55 971C228.724 978.6 231.163 991.761 239.55 1001C247.899 1010.2 262.176 1012.5 273.55 1010.5Z" fill="#DD52F4"/>
</g>
</svg>
